<!DOCTYPE svg PUBLIC "-//W3C//DTD SVG 20010904//EN" "http://www.w3.org/TR/2001/REC-SVG-20010904/DTD/svg10.dtd">
<svg version="1.0" xmlns="http://www.w3.org/2000/svg" width="200px" height="200px" viewBox="0 0 2000 2000" preserveAspectRatio="xMidYMid meet">
<g id="layer101" fill="#4285f4" stroke="none">
 <path d="M359 1940 c-37 -19 -64 -52 -86 -104 -17 -38 -19 -857 -2 -907 15 -43 65 -97 106 -115 18 -8 52 -14 77 -14 45 0 45 0 48 -227 3 -223 4 -229 30 -285 35 -75 71 -120 137 -170 92 -69 141 -82 331 -82 164 0 165 0 241 33 126 53 211 149 243 276 42 159 -4 254 -123 255 -82 0 -141 -60 -141 -143 0 -47 -37 -98 -90 -125 -40 -21 -56 -23 -147 -20 -84 3 -107 7 -129 24 -72 53 -83 95 -84 307 l0 157 408 0 c453 0 457 1 515 69 47 56 48 77 45 537 -3 430 -3 430 -31 472 -15 23 -45 51 -67 62 -38 19 -57 20 -642 20 -573 -1 -605 -2 -639 -20z m738 -298 c10 -6 5 -38 -20 -136 -32 -127 -32 -127 -3 -148 31 -24 56 -73 56 -113 0 -95 -114 -156 -197 -105 -80 49 -83 162 -6 218 28 20 28 20 -3 146 -22 87 -28 128 -21 135 13 13 176 15 194 3z"/>
 </g>

</svg>