<!DOCTYPE svg PUBLIC "-//W3C//DTD SVG 20010904//EN" "http://www.w3.org/TR/2001/REC-SVG-20010904/DTD/svg10.dtd">
<svg version="1.0" xmlns="http://www.w3.org/2000/svg" width="512px" height="512px" viewBox="0 0 5120 5120" preserveAspectRatio="xMidYMid meet">
<g id="layer101" fill="#4285f4" stroke="none">
 <path d="M380 4596 c-168 -47 -315 -190 -364 -356 -14 -48 -16 -189 -16 -1295 0 -1106 2 -1247 16 -1296 44 -150 165 -280 318 -343 48 -19 76 -21 441 -26 376 -5 391 -6 431 -27 87 -46 104 -77 199 -363 75 -226 93 -268 124 -303 74 -82 1 -77 1031 -77 1030 0 957 -5 1031 77 31 35 49 77 124 303 95 286 112 317 199 363 40 21 55 22 431 27 365 5 393 7 441 26 153 63 274 193 318 343 14 49 16 190 16 1296 0 1106 -2 1247 -16 1295 -50 168 -197 310 -369 356 -71 19 -4286 19 -4355 0z m2430 -531 c98 -21 240 -70 315 -108 362 -181 623 -534 691 -934 34 -199 6 -474 -66 -663 -159 -411 -542 -724 -980 -801 -96 -17 -324 -17 -420 0 -438 77 -821 390 -980 801 -72 189 -100 464 -66 663 84 493 452 898 930 1023 176 46 414 54 576 19z m1718 -1954 c101 -71 92 -225 -16 -288 -35 -21 -52 -25 -97 -21 -94 8 -155 76 -155 173 0 69 38 128 100 154 42 18 132 8 168 -18z"/>
 <path d="M2438 3580 c-324 -59 -568 -293 -633 -606 -35 -170 -13 -340 67 -504 44 -92 61 -115 142 -195 140 -138 268 -201 460 -225 154 -19 342 19 476 97 36 21 106 78 156 128 81 80 98 103 142 195 59 121 82 219 82 345 0 349 -227 651 -560 745 -84 23 -257 34 -332 20z"/>
 </g>

</svg>