<!DOCTYPE svg PUBLIC "-//W3C//DTD SVG 20010904//EN" "http://www.w3.org/TR/2001/REC-SVG-20010904/DTD/svg10.dtd">
<svg version="1.0" xmlns="http://www.w3.org/2000/svg" width="55px" height="55px" viewBox="0 0 550 550" preserveAspectRatio="xMidYMid meet">
<g id="layer101" fill="#4285f4" stroke="none">
 <path d="M232 538 c-5 -7 -12 -24 -14 -38 -4 -30 -38 -39 -58 -15 -19 23 -43 18 -73 -13 -31 -32 -34 -54 -12 -72 24 -20 15 -54 -15 -58 -38 -6 -50 -21 -50 -62 0 -41 12 -56 50 -62 30 -4 39 -38 15 -58 -23 -19 -18 -43 13 -73 32 -31 54 -34 72 -12 20 24 54 15 58 -15 6 -39 21 -50 67 -50 44 0 55 10 55 51 0 29 26 34 65 13 l34 -18 31 29 c33 32 38 56 15 75 -18 15 -20 49 -2 54 6 3 24 7 40 10 25 6 27 10 27 56 0 46 -2 50 -27 56 -16 3 -34 7 -40 10 -18 5 -16 39 2 54 22 18 18 40 -12 72 -30 31 -54 36 -73 13 -15 -18 -49 -20 -54 -2 -3 6 -7 24 -10 40 -6 24 -11 27 -50 27 -24 0 -48 -6 -54 -12z m98 -163 c32 -17 60 -61 60 -95 0 -54 -57 -110 -112 -110 -38 0 -85 35 -98 74 -16 49 2 101 44 127 38 23 67 24 106 4z"/>
 </g>

</svg>