<!DOCTYPE svg PUBLIC "-//W3C//DTD SVG 20010904//EN" "http://www.w3.org/TR/2001/REC-SVG-20010904/DTD/svg10.dtd">
<svg version="1.0" xmlns="http://www.w3.org/2000/svg" width="43px" height="43px" viewBox="0 0 430 430" preserveAspectRatio="xMidYMid meet">
<g id="layer101" fill="#4285f3" stroke="none">
 <path d="M190 404 c-6 -14 -10 -54 -10 -90 l0 -64 -80 0 c-65 0 -82 -3 -87 -16 -13 -35 10 -49 91 -52 l76 -3 0 -65 c0 -74 12 -104 40 -104 28 0 40 30 40 104 l0 65 76 3 c81 3 104 17 91 52 -5 13 -22 16 -87 16 l-80 0 0 71 c0 39 -5 79 -10 90 -15 28 -49 24 -60 -7z"/>
 </g>

</svg>