<!DOCTYPE svg PUBLIC "-//W3C//DTD SVG 20010904//EN" "http://www.w3.org/TR/2001/REC-SVG-20010904/DTD/svg10.dtd">
<svg version="1.0" xmlns="http://www.w3.org/2000/svg" width="72px" height="72px" viewBox="0 0 720 720" preserveAspectRatio="xMidYMid meet">
<g id="layer101" fill="#4285f4" stroke="none">
 <path d="M127 512 c-78 -78 -127 -135 -127 -147 0 -28 248 -275 276 -275 26 0 44 18 44 44 0 12 -32 56 -75 101 l-74 80 261 3 c172 1 266 6 275 13 16 14 17 51 1 67 -9 9 -84 12 -275 12 -145 0 -263 3 -263 7 0 4 36 44 80 89 76 78 80 83 69 108 -24 52 -53 37 -192 -102z"/>
 </g>

</svg>