<!DOCTYPE svg PUBLIC "-//W3C//DTD SVG 20010904//EN" "http://www.w3.org/TR/2001/REC-SVG-20010904/DTD/svg10.dtd">
<svg version="1.0" xmlns="http://www.w3.org/2000/svg" width="480px" height="480px" viewBox="0 0 4800 4800" preserveAspectRatio="xMidYMid meet">
<g id="layer101" fill="#4285f4" stroke="none">
 <path d="M4275 4787 c-22 -7 -51 -18 -65 -26 -14 -8 -27 -14 -30 -14 -42 4 -154 -99 -670 -614 -290 -287 -532 -523 -539 -523 -7 0 -56 23 -109 50 -53 28 -99 50 -103 50 -4 0 -40 15 -81 34 -100 47 -281 106 -342 112 -28 3 -69 9 -91 14 -151 33 -413 35 -595 5 -47 -8 -104 -16 -128 -19 -87 -10 -320 -93 -472 -169 -57 -28 -260 -162 -325 -214 -280 -223 -493 -524 -623 -883 -68 -190 -102 -402 -102 -646 0 -383 103 -746 295 -1040 179 -275 327 -424 599 -602 214 -141 439 -228 706 -273 233 -39 441 -40 670 -4 172 27 198 33 320 77 359 131 660 343 883 623 52 65 186 268 214 325 76 152 159 385 169 472 3 24 11 81 19 128 30 182 28 444 -5 595 -5 22 -11 63 -14 91 -6 61 -65 242 -112 342 -19 41 -34 77 -34 81 0 4 -22 50 -50 103 -27 53 -50 102 -50 109 0 7 236 249 523 539 523 524 612 621 615 673 0 4 7 18 15 30 46 71 48 254 4 350 -36 79 -115 160 -195 199 -58 29 -76 33 -161 35 -54 1 -114 -3 -136 -10z m-2069 -1438 c67 -10 155 -30 195 -45 92 -33 316 -141 338 -163 9 -9 45 -38 81 -66 36 -27 97 -81 135 -120 39 -38 93 -99 120 -135 28 -36 57 -72 66 -81 22 -22 130 -246 163 -338 99 -275 86 -719 -29 -985 -110 -256 -264 -454 -489 -625 -129 -98 -389 -220 -501 -235 -16 -2 -73 -11 -125 -20 -120 -20 -298 -20 -415 -1 -49 9 -110 18 -134 21 -62 8 -165 47 -306 115 -259 125 -509 375 -634 634 -68 141 -107 244 -115 306 -3 24 -12 85 -21 134 -19 117 -19 295 1 415 9 52 18 109 20 125 7 54 46 158 105 283 185 391 596 712 998 778 209 34 345 35 547 3z"/>
 <path d="M2790 1833 c-56 -10 -120 -74 -167 -168 -69 -135 -142 -223 -252 -303 -84 -61 -245 -135 -338 -156 -143 -32 -336 -16 -471 39 -172 70 -320 -14 -320 -180 0 -104 39 -155 153 -204 141 -59 221 -74 425 -75 258 -1 314 5 455 56 129 47 385 190 385 216 0 4 17 18 37 32 44 30 184 187 227 255 48 75 118 225 123 265 8 60 -13 115 -63 162 -60 57 -117 75 -194 61z"/>
 </g>

</svg>