<!DOCTYPE svg PUBLIC "-//W3C//DTD SVG 20010904//EN" "http://www.w3.org/TR/2001/REC-SVG-20010904/DTD/svg10.dtd">
<svg version="1.0" xmlns="http://www.w3.org/2000/svg" width="72px" height="72px" viewBox="0 0 720 720" preserveAspectRatio="xMidYMid meet">
<g id="layer101" fill="#4285f3" stroke="none">
 <path d="M30 640 c-11 -11 -20 -27 -20 -35 0 -22 95 -221 109 -230 7 -4 18 -2 24 4 7 7 -3 39 -37 111 -26 56 -45 108 -42 116 6 14 26 8 143 -42 51 -22 324 -135 395 -164 36 -15 58 -30 58 -39 0 -11 -84 -51 -283 -133 -155 -64 -289 -118 -297 -120 -28 -6 -20 37 23 117 l42 80 85 7 c47 3 112 9 145 11 33 3 68 6 78 6 11 1 17 9 17 23 0 21 -2 21 -107 14 -172 -10 -237 -18 -249 -27 -5 -4 -32 -53 -58 -108 -49 -102 -52 -124 -20 -156 9 -8 25 -15 37 -15 12 0 155 56 317 124 241 101 298 128 310 150 13 23 13 29 0 52 -12 22 -69 49 -310 150 -162 68 -305 124 -317 124 -13 0 -32 -9 -43 -20z"/>
 </g>

</svg>