<!DOCTYPE svg PUBLIC "-//W3C//DTD SVG 20010904//EN" "http://www.w3.org/TR/2001/REC-SVG-20010904/DTD/svg10.dtd">
<svg version="1.0" xmlns="http://www.w3.org/2000/svg" width="512px" height="512px" viewBox="0 0 5120 5120" preserveAspectRatio="xMidYMid meet">
<g id="layer101" fill="#4285f4" stroke="none">
 <path d="M2305 5114 c-280 -40 -431 -74 -612 -140 -379 -137 -699 -346 -983 -640 -386 -401 -628 -911 -696 -1465 -20 -167 -15 -550 10 -704 55 -343 187 -692 371 -979 302 -473 756 -841 1272 -1031 289 -106 502 -145 833 -152 262 -6 411 7 619 53 940 209 1704 955 1929 1884 58 239 67 319 67 620 0 301 -9 381 -67 620 -217 897 -940 1630 -1836 1861 -229 59 -333 71 -617 74 -143 2 -273 1 -290 -1z m537 -360 c385 -50 745 -200 1073 -447 103 -78 314 -289 392 -392 195 -259 323 -523 398 -820 128 -507 69 -1048 -166 -1519 -111 -223 -235 -393 -418 -577 -426 -425 -964 -649 -1561 -649 -446 0 -862 126 -1230 373 -230 155 -452 377 -607 607 -374 557 -475 1263 -272 1897 260 813 975 1414 1814 1526 151 20 424 21 577 1z"/>
 <path d="M1021 4092 c2 -5 210 -491 463 -1080 l458 -1069 1076 -462 c592 -253 1077 -459 1079 -458 1 2 -205 487 -458 1079 l-462 1076 -1069 458 c-1221 524 -1092 469 -1087 456z m1197 -888 l512 -219 -297 -297 c-163 -163 -298 -296 -299 -295 -1 2 -395 919 -431 1005 -8 19 -10 32 -6 29 4 -2 239 -102 521 -223z m1205 -1497 c4 -10 3 -16 -1 -14 -4 2 -238 102 -520 223 l-512 219 297 297 297 297 216 -502 c119 -276 219 -510 223 -520z"/>
 </g>

</svg>