<!DOCTYPE svg PUBLIC "-//W3C//DTD SVG 20010904//EN" "http://www.w3.org/TR/2001/REC-SVG-20010904/DTD/svg10.dtd">
<svg version="1.0" xmlns="http://www.w3.org/2000/svg" width="180px" height="180px" viewBox="0 0 1800 1800" preserveAspectRatio="xMidYMid meet">
<g id="layer101" fill="#4285f4" stroke="none">
 <path d="M1111 1725 c-131 -37 -149 -52 -613 -513 -306 -305 -445 -450 -465 -486 -25 -46 -28 -60 -28 -146 0 -129 18 -164 154 -301 135 -135 173 -154 296 -154 78 0 97 4 140 27 35 19 160 137 427 405 408 409 415 418 425 533 10 108 -48 215 -142 259 -35 16 -64 21 -133 21 -146 0 -153 -5 -519 -372 -298 -299 -313 -315 -313 -351 0 -51 28 -77 82 -77 42 0 44 2 353 309 170 170 320 314 332 320 29 15 114 14 133 -2 27 -21 50 -60 50 -85 0 -12 -9 -39 -19 -60 -30 -57 -717 -738 -765 -757 -73 -30 -108 -16 -219 94 -54 53 -105 108 -113 123 -18 35 -18 92 0 126 8 15 210 221 448 458 493 490 476 478 628 478 65 1 93 -3 120 -18 55 -29 236 -216 259 -267 42 -91 19 -229 -55 -329 -18 -25 -202 -214 -408 -420 -375 -374 -376 -375 -376 -417 0 -50 25 -73 80 -73 33 0 60 25 442 408 394 394 408 410 445 487 37 79 38 82 41 215 5 198 -4 217 -172 386 -167 167 -203 187 -356 191 -71 2 -123 -2 -159 -12z"/>
 </g>

</svg>