<!DOCTYPE svg PUBLIC "-//W3C//DTD SVG 20010904//EN" "http://www.w3.org/TR/2001/REC-SVG-20010904/DTD/svg10.dtd">
<svg version="1.0" xmlns="http://www.w3.org/2000/svg" width="505px" height="495px" viewBox="0 0 5050 4950" preserveAspectRatio="xMidYMid meet">
<g id="layer101" fill="#4285f4" stroke="none">
 <path d="M4068 4640 c-129 -6 -151 -15 -195 -80 -22 -32 -23 -41 -23 -261 l0 -229 -223 0 c-214 0 -226 -1 -267 -23 -71 -37 -81 -68 -78 -229 3 -130 4 -138 28 -163 52 -55 75 -60 318 -60 l222 0 0 -223 c0 -251 4 -271 66 -318 37 -29 40 -29 168 -29 113 0 136 3 166 20 63 37 70 66 78 317 l7 223 75 6 c41 4 143 7 225 8 171 1 205 11 240 71 17 30 20 52 20 165 0 127 -1 131 -28 170 -16 22 -38 45 -50 52 -15 9 -89 12 -243 13 -166 0 -224 3 -232 13 -6 7 -12 97 -14 227 -3 194 -5 219 -24 254 -23 44 -56 72 -94 78 -14 2 -78 1 -142 -2z"/>
 <path d="M224 4382 c-65 -47 -68 -54 -59 -130 4 -37 8 -80 9 -97 1 -16 6 -39 12 -50 6 -11 26 -67 45 -125 38 -121 123 -297 200 -420 60 -95 72 -112 176 -239 198 -242 504 -470 784 -583 31 -13 56 -27 55 -33 -1 -5 -35 -35 -76 -66 -238 -178 -411 -442 -487 -744 -14 -55 -30 -105 -35 -112 -5 -7 -8 -25 -7 -40 2 -15 0 -34 -4 -41 -5 -6 -5 -18 0 -24 4 -7 9 -79 10 -160 1 -81 4 -152 8 -158 3 -5 3 -15 0 -20 -4 -6 -2 -17 5 -24 6 -8 12 -29 14 -48 1 -18 8 -43 14 -55 7 -12 12 -30 12 -40 0 -11 9 -38 20 -61 11 -22 20 -45 20 -49 0 -13 80 -165 96 -184 8 -8 14 -19 14 -23 0 -18 122 -168 200 -246 254 -252 589 -390 950 -390 159 0 287 19 424 65 213 69 392 182 554 349 238 245 362 533 378 876 15 301 -56 556 -225 815 -56 86 -55 85 -113 142 -27 25 -48 52 -48 58 0 14 -41 51 -139 128 -33 27 -61 52 -61 56 0 4 26 18 58 31 225 91 440 234 639 423 77 74 93 95 91 116 -3 26 -3 26 -243 31 -230 5 -242 6 -285 29 -25 13 -55 29 -66 35 -25 12 -49 54 -64 113 -7 27 -10 197 -10 480 l1 438 -1414 3 c-1414 2 -1414 2 -1453 -26z"/>
 <path d="M4198 13 c7 -3 16 -2 19 1 4 3 -2 6 -13 5 -11 0 -14 -3 -6 -6z"/>
 <path d="M3488 3 c7 -3 16 -2 19 1 4 3 -2 6 -13 5 -11 0 -14 -3 -6 -6z"/>
 </g>

</svg>