<!DOCTYPE svg PUBLIC "-//W3C//DTD SVG 20010904//EN" "http://www.w3.org/TR/2001/REC-SVG-20010904/DTD/svg10.dtd">
<svg version="1.0" xmlns="http://www.w3.org/2000/svg" width="72px" height="72px" viewBox="0 0 720 720" preserveAspectRatio="xMidYMid meet">
<g id="layer101" fill="#4285f4" stroke="none">
 <path d="M258 468 l-2 -103 -5 85 -6 85 -35 0 -35 0 -3 -73 c-3 -66 -1 -74 22 -97 24 -24 66 -34 66 -16 0 5 13 -4 29 -20 41 -41 101 -41 142 0 16 16 29 25 29 20 0 -18 42 -8 66 16 23 23 25 31 22 97 l-3 73 -35 0 -35 0 -6 -85 -5 -85 -2 103 -2 102 -100 0 -100 0 -2 -102z"/>
 <path d="M210 316 c-15 -19 -9 -56 12 -69 26 -17 68 7 68 37 0 40 -55 61 -80 32z"/>
 <path d="M446 314 c-9 -8 -16 -22 -16 -29 0 -7 7 -21 16 -29 30 -30 74 -13 74 29 0 42 -44 59 -74 29z"/>
 <path d="M320 270 c-24 -24 -26 -72 -4 -94 8 -9 28 -16 44 -16 38 0 60 24 60 65 0 57 -60 85 -100 45z"/>
 </g>

</svg>