<!DOCTYPE svg PUBLIC "-//W3C//DTD SVG 20010904//EN" "http://www.w3.org/TR/2001/REC-SVG-20010904/DTD/svg10.dtd">
<svg version="1.0" xmlns="http://www.w3.org/2000/svg" width="640px" height="528px" viewBox="0 0 6400 5280" preserveAspectRatio="xMidYMid meet">
<g id="layer101" fill="#4285f4" stroke="none">
 <path d="M4336 4373 c-1 -2 -758 -4 -1682 -6 -1663 -4 -1679 -4 -1729 -24 -269 -110 -410 -244 -483 -457 l-27 -81 0 -1485 c0 -1406 1 -1488 18 -1550 41 -144 161 -305 289 -386 24 -15 79 -43 123 -62 l80 -35 400 -8 c600 -12 3366 -11 3787 1 l368 11 82 34 c181 76 313 214 383 399 25 67 26 75 35 455 12 444 12 2039 1 2414 l-8 254 -33 74 c-66 144 -131 225 -255 314 -75 54 -229 115 -288 115 -24 0 -79 5 -123 10 -66 8 -931 20 -938 13z m-2410 -547 c3 -8 60 -10 197 -7 477 9 841 15 947 15 1096 -3 2235 -14 2274 -22 54 -10 80 -35 96 -92 10 -36 16 -2477 6 -2487 -3 -3 -47 26 -98 64 -122 91 -157 116 -318 224 -74 51 -152 105 -173 121 -37 29 -133 98 -367 262 -63 44 -142 101 -175 126 -33 26 -96 71 -140 100 -44 30 -107 74 -141 99 -33 25 -136 98 -228 161 -92 63 -213 148 -269 189 -187 135 -274 162 -398 125 -85 -25 -88 -27 -198 -110 -177 -134 -213 -160 -305 -225 -49 -34 -103 -74 -120 -89 -17 -15 -161 -125 -321 -244 -159 -119 -330 -248 -380 -286 -49 -38 -157 -120 -240 -182 -82 -62 -190 -143 -240 -181 -49 -38 -110 -83 -135 -101 -24 -17 -65 -49 -90 -72 -56 -50 -150 -117 -156 -111 -3 3 -5 591 -4 1308 0 1296 0 1304 21 1346 16 34 28 45 57 52 93 25 889 40 898 17z m1467 -1797 c84 -56 184 -125 222 -154 39 -28 166 -119 284 -201 118 -82 265 -185 327 -229 62 -44 188 -133 281 -197 92 -64 188 -132 212 -150 87 -66 218 -159 300 -215 l85 -57 -35 -8 c-25 -5 -2977 -9 -3349 -4 -25 0 -85 -2 -135 -5 -49 -4 -99 -3 -109 0 -22 9 -18 12 141 129 95 68 757 569 848 640 28 22 124 95 215 163 91 68 218 164 283 214 205 156 231 174 255 175 13 0 89 -44 175 -101z"/>
 </g>

</svg>