<!DOCTYPE svg PUBLIC "-//W3C//DTD SVG 20010904//EN" "http://www.w3.org/TR/2001/REC-SVG-20010904/DTD/svg10.dtd">
<svg version="1.0" xmlns="http://www.w3.org/2000/svg" width="500px" height="500px" viewBox="0 0 5000 5000" preserveAspectRatio="xMidYMid meet">
<g id="layer101" fill="#4285f4" stroke="none">
 <path d="M2397 4595 c-121 -50 -256 -157 -488 -386 -211 -209 -456 -519 -601 -762 -69 -116 -191 -351 -233 -452 -7 -16 -25 -54 -39 -82 -14 -29 -23 -53 -19 -53 5 0 3 -4 -3 -8 -15 -9 -115 -305 -148 -437 -28 -113 -69 -360 -85 -510 -18 -162 -19 -436 -2 -468 17 -32 79 -58 175 -72 15 -2 34 -10 42 -16 8 -6 14 -9 14 -5 0 3 23 -3 50 -14 28 -11 50 -17 50 -14 0 4 6 1 13 -5 8 -6 24 -13 38 -15 13 -3 25 -5 27 -7 1 -1 5 -2 10 -3 4 -1 12 -4 18 -8 6 -4 33 -15 60 -24 89 -29 335 -156 434 -224 32 -22 64 -40 69 -40 6 0 11 -4 11 -10 0 -5 7 -10 15 -10 9 0 18 -7 21 -15 4 -8 10 -12 15 -9 5 3 12 -2 15 -10 3 -9 11 -16 18 -16 6 0 31 -18 55 -40 25 -22 49 -40 54 -40 5 0 112 -101 236 -224 142 -141 236 -227 254 -231 62 -16 75 -5 302 238 50 53 95 96 100 97 6 0 35 25 65 55 29 30 58 55 62 55 5 0 37 22 73 49 202 155 469 308 657 375 51 19 107 40 123 47 17 7 33 13 38 14 4 2 8 3 10 4 1 2 13 4 27 7 14 2 32 7 40 11 8 3 20 7 25 8 93 23 183 49 198 57 48 25 56 109 37 393 -18 261 -67 540 -137 764 -54 176 -97 286 -180 460 -34 73 -63 135 -63 138 0 2 -37 70 -82 151 -91 166 -244 402 -258 402 -6 0 -10 5 -10 11 0 5 -33 51 -73 102 -39 51 -92 119 -117 152 -55 73 -345 366 -454 458 -107 91 -170 131 -251 161 -83 32 -133 32 -208 1z m255 -1082 c24 -15 45 -30 48 -33 3 -4 43 -35 90 -70 82 -61 247 -221 320 -310 19 -23 42 -50 50 -60 8 -10 22 -28 30 -40 8 -12 37 -52 64 -88 26 -37 66 -103 88 -147 22 -44 43 -82 47 -85 3 -3 7 -12 9 -20 2 -8 8 -17 13 -18 5 -2 7 -8 3 -13 -3 -5 0 -9 7 -9 7 0 9 -3 6 -6 -4 -4 4 -28 17 -53 27 -51 63 -134 71 -163 2 -5 4 -10 5 -13 1 -3 3 -8 5 -12 1 -5 7 -21 14 -37 6 -16 13 -38 16 -50 2 -11 4 -21 5 -21 2 0 7 -22 15 -60 3 -16 9 -39 12 -50 21 -63 36 -171 29 -200 -7 -29 -51 -75 -71 -75 -7 0 -95 -38 -195 -86 -100 -47 -218 -100 -263 -118 -68 -28 -257 -112 -325 -145 -9 -4 -39 -19 -67 -32 -27 -13 -50 -23 -52 -22 -1 1 -18 -4 -37 -12 -41 -17 -76 -8 -100 27 -14 20 -16 120 -15 1008 0 542 4 993 8 1004 10 26 52 47 83 41 15 -2 47 -17 70 -32z"/>
 </g>

</svg>