<!DOCTYPE svg PUBLIC "-//W3C//DTD SVG 20010904//EN" "http://www.w3.org/TR/2001/REC-SVG-20010904/DTD/svg10.dtd">
<svg version="1.0" xmlns="http://www.w3.org/2000/svg" width="981px" height="980px" viewBox="0 0 9810 9800" preserveAspectRatio="xMidYMid meet">
<g id="layer101" fill="#4384f1" stroke="none">
 <path d="M305 9782 c-120 -42 -214 -125 -268 -240 l-32 -67 -3 -1301 -2 -1302 47 -30 c155 -99 236 -95 353 16 l50 48 0 1222 0 1222 1222 0 1222 0 63 62 c137 136 135 234 -6 343 l-59 45 -1269 0 c-1177 -1 -1272 -2 -1318 -18z"/>
 <path d="M6844 9748 c-64 -67 -83 -98 -90 -148 -8 -54 22 -114 95 -191 l56 -60 1223 1 1222 0 0 -1219 -1 -1220 43 -40 c51 -49 134 -91 178 -91 41 0 144 49 193 92 l38 33 -1 1265 c0 875 -4 1278 -11 1305 -32 119 -129 232 -246 288 l-68 32 -1290 3 -1290 2 -51 -52z"/>
 <path d="M3250 5120 c19 -13 30 -13 30 0 0 6 -10 10 -22 10 -19 0 -20 -2 -8 -10z"/>
 <path d="M135 3030 c-22 -11 -61 -40 -88 -64 l-47 -44 2 -1299 3 -1299 37 -75 c46 -93 122 -168 215 -212 l68 -32 1291 -3 1291 -2 62 65 c118 127 120 209 8 305 -23 19 -52 45 -64 58 l-24 22 -1219 0 -1220 0 0 1227 0 1227 -55 52 c-97 92 -178 115 -260 74z"/>
 <path d="M9512 3028 c-23 -13 -69 -49 -102 -81 l-61 -59 1 -1219 0 -1219 -1221 0 c-944 0 -1225 -2 -1238 -12 -46 -34 -115 -107 -132 -140 -40 -78 -18 -146 78 -241 l59 -57 1289 2 1290 3 68 32 c93 44 169 119 215 212 l37 75 5 1270 c3 699 2 1280 -1 1291 -4 11 -32 46 -62 78 -85 88 -148 107 -225 65z"/>
 </g>

</svg>