<!DOCTYPE svg PUBLIC "-//W3C//DTD SVG 20010904//EN" "http://www.w3.org/TR/2001/REC-SVG-20010904/DTD/svg10.dtd">
<svg version="1.0" xmlns="http://www.w3.org/2000/svg" width="1200px" height="1200px" viewBox="0 0 12000 12000" preserveAspectRatio="xMidYMid meet">
<g id="layer101" fill="#4285f4" stroke="none">
 <path d="M5770 9110 c-8 -5 -34 -10 -57 -10 -23 0 -45 -4 -48 -10 -3 -5 -18 -10 -33 -10 -27 0 -93 -20 -132 -40 -11 -5 -29 -14 -40 -20 -11 -5 -29 -10 -40 -10 -11 0 -20 -4 -20 -10 0 -5 -9 -10 -20 -10 -11 0 -20 -4 -20 -10 0 -5 -8 -10 -17 -10 -10 0 -29 -9 -43 -20 -14 -11 -28 -20 -32 -20 -13 0 -113 -65 -135 -87 -12 -13 -24 -23 -27 -23 -6 0 -37 -25 -70 -55 -12 -11 -37 -32 -56 -46 -19 -14 -49 -39 -66 -55 -17 -16 -51 -45 -75 -66 -24 -20 -54 -44 -65 -55 -12 -10 -56 -46 -98 -81 -42 -34 -76 -67 -76 -72 0 -6 -6 -10 -14 -10 -8 0 -37 -22 -65 -50 -28 -27 -53 -50 -56 -50 -6 0 -52 -37 -91 -76 -18 -17 -47 -42 -66 -56 -18 -14 -46 -38 -63 -53 -16 -14 -50 -43 -75 -63 -25 -20 -65 -56 -90 -79 -25 -23 -56 -50 -70 -60 -23 -15 -70 -55 -158 -134 -18 -16 -35 -29 -38 -29 -3 0 -15 -10 -28 -22 -13 -13 -43 -39 -67 -58 -23 -19 -52 -44 -64 -55 -11 -11 -40 -36 -65 -56 -25 -20 -59 -50 -75 -65 -17 -16 -47 -41 -67 -56 -20 -15 -42 -33 -50 -40 -7 -7 -45 -40 -83 -73 -39 -33 -77 -67 -85 -75 -8 -9 -36 -31 -62 -48 -25 -18 -55 -42 -65 -55 -10 -12 -34 -34 -53 -47 -19 -14 -44 -34 -56 -45 -11 -11 -39 -36 -63 -55 -24 -19 -55 -45 -69 -58 -25 -22 -114 -98 -256 -219 -33 -29 -79 -67 -101 -84 -22 -17 -60 -49 -85 -72 -25 -23 -61 -54 -80 -69 -19 -14 -44 -34 -55 -44 -12 -11 -50 -44 -85 -74 -36 -30 -72 -61 -80 -70 -8 -8 -31 -27 -50 -42 -19 -15 -48 -39 -65 -53 -16 -15 -52 -45 -79 -68 -27 -23 -54 -47 -60 -52 -6 -6 -48 -41 -93 -79 -46 -37 -83 -71 -83 -75 0 -4 -14 -15 -31 -25 -18 -11 -55 -40 -84 -65 -71 -63 -163 -142 -193 -166 -14 -11 -46 -38 -71 -61 -25 -22 -77 -67 -116 -100 -68 -57 -190 -169 -206 -189 -4 -5 -25 -30 -47 -55 -21 -25 -47 -60 -58 -77 -10 -18 -22 -33 -26 -33 -4 0 -8 -6 -8 -13 0 -7 -8 -22 -18 -33 -24 -28 -42 -61 -42 -79 0 -8 -4 -15 -10 -15 -5 0 -15 -15 -23 -32 -8 -18 -24 -54 -36 -80 -11 -26 -21 -54 -21 -62 0 -8 -5 -18 -10 -21 -6 -3 -10 -17 -10 -30 0 -13 -4 -27 -10 -30 -5 -3 -10 -21 -10 -39 0 -17 -6 -38 -12 -44 -19 -19 -19 -683 0 -689 6 -3 12 -20 12 -38 0 -19 5 -37 10 -40 6 -3 10 -17 10 -30 0 -13 5 -27 10 -30 6 -3 10 -14 10 -24 0 -9 8 -35 19 -57 10 -21 26 -58 37 -81 10 -24 21 -43 24 -43 3 0 12 -16 20 -35 8 -19 17 -35 21 -35 4 0 9 -8 11 -17 10 -36 130 -182 221 -269 95 -90 171 -154 182 -154 3 0 15 -9 27 -20 12 -11 28 -20 35 -20 7 0 13 -4 13 -10 0 -5 8 -10 18 -10 10 0 28 -9 40 -20 12 -11 26 -20 31 -20 6 0 26 -9 46 -20 20 -11 44 -20 55 -20 11 0 20 -4 20 -10 0 -5 11 -10 24 -10 13 0 29 -7 36 -15 7 -8 23 -15 36 -15 12 0 26 -5 29 -10 3 -5 21 -10 39 -10 17 0 36 -4 41 -9 17 -16 104 -23 334 -27 147 -3 228 -1 235 6 5 5 31 10 57 10 26 0 51 5 54 10 3 6 15 10 26 10 30 0 119 31 119 41 0 5 14 9 30 9 17 0 30 5 30 10 0 6 11 10 25 10 14 0 25 5 25 10 0 6 6 10 14 10 16 0 114 50 156 80 15 11 31 20 35 20 6 0 91 66 105 80 3 3 21 17 40 30 32 22 207 169 256 215 12 11 41 36 64 54 23 19 48 40 54 46 6 5 38 33 71 60 33 28 62 52 65 55 3 3 52 46 110 95 58 49 107 93 108 97 2 5 8 8 13 8 6 0 29 18 52 39 23 22 56 50 72 62 17 13 53 43 80 68 28 25 62 55 76 66 27 21 112 93 188 160 25 22 75 65 111 95 36 30 67 57 70 60 3 4 15 13 28 22 12 8 42 33 65 55 23 21 52 46 65 55 12 8 39 30 60 49 20 19 64 56 97 84 33 27 65 54 71 60 6 5 35 30 64 55 29 25 58 50 64 55 6 6 43 37 81 70 39 33 72 62 75 65 3 3 39 33 80 66 91 74 119 97 179 150 25 23 57 50 70 60 14 10 45 37 70 60 25 22 59 50 75 62 16 12 52 43 81 69 29 27 83 73 119 103 37 30 93 78 124 105 31 28 74 63 95 79 l38 29 27 -24 c15 -13 28 -27 30 -31 2 -5 8 -8 13 -8 5 0 26 -16 46 -35 21 -18 76 -66 123 -105 47 -39 101 -85 120 -103 19 -17 80 -69 135 -115 55 -46 129 -109 164 -140 35 -31 71 -61 80 -66 9 -5 27 -21 41 -35 14 -14 42 -39 63 -55 21 -15 51 -40 66 -55 15 -14 45 -39 67 -56 21 -16 59 -48 84 -70 25 -23 74 -65 110 -95 36 -30 67 -57 70 -60 3 -3 37 -32 75 -65 39 -33 72 -62 75 -65 3 -3 30 -24 60 -48 30 -23 71 -58 90 -77 19 -19 38 -35 43 -35 5 0 17 -8 26 -18 9 -10 45 -42 81 -72 36 -30 67 -57 70 -60 3 -3 32 -28 65 -55 33 -28 62 -53 65 -56 3 -3 37 -32 75 -64 39 -32 79 -68 90 -78 11 -10 36 -31 55 -45 19 -15 50 -42 69 -60 19 -18 54 -47 77 -63 24 -16 47 -35 51 -42 4 -7 44 -42 88 -77 86 -70 109 -90 189 -160 28 -25 76 -66 106 -90 30 -25 62 -52 70 -60 8 -9 44 -40 80 -69 36 -29 70 -58 75 -65 6 -6 26 -23 45 -36 37 -26 52 -38 103 -82 18 -15 43 -33 57 -40 14 -7 27 -16 30 -19 10 -12 162 -89 176 -89 8 0 14 -4 14 -10 0 -5 9 -10 19 -10 11 0 23 -4 26 -10 3 -5 15 -10 26 -10 11 0 27 -7 35 -15 9 -8 26 -15 39 -15 13 0 27 -5 30 -10 3 -6 21 -10 39 -10 17 0 36 -4 42 -9 5 -5 32 -12 59 -16 80 -12 494 -9 555 3 30 6 72 14 93 18 20 3 40 10 43 15 3 5 16 9 28 9 13 0 29 7 36 15 7 8 21 15 31 15 11 0 27 4 37 9 9 5 28 13 42 18 247 97 528 347 671 598 12 22 33 58 45 80 27 47 94 226 101 270 3 17 11 36 17 44 17 21 15 656 -1 672 -7 7 -13 27 -13 44 0 17 -4 35 -8 41 -5 5 -14 29 -22 54 -14 49 -79 202 -89 210 -3 3 -13 19 -21 35 -19 40 -116 180 -154 225 -65 74 -175 177 -296 276 -19 16 -42 36 -50 45 -8 9 -42 38 -75 65 -33 27 -62 51 -65 54 -3 3 -32 28 -65 55 -33 28 -70 60 -82 72 -12 12 -40 34 -60 50 -21 15 -45 35 -53 43 -8 8 -69 60 -135 115 -66 55 -122 102 -125 105 -3 3 -36 32 -75 65 -38 33 -72 62 -75 65 -3 3 -50 43 -105 90 -55 46 -105 89 -111 95 -6 5 -28 24 -49 40 -21 17 -48 39 -59 50 -12 11 -41 36 -66 55 -25 19 -47 37 -50 40 -3 3 -36 32 -75 65 -38 33 -72 62 -75 65 -3 3 -30 25 -60 50 -30 25 -64 54 -75 65 -11 11 -45 41 -75 65 -30 25 -73 62 -95 83 -22 20 -44 37 -48 37 -5 0 -23 15 -40 33 -18 18 -49 45 -70 60 -20 16 -48 38 -60 50 -24 24 -176 153 -237 202 -20 17 -84 71 -142 120 -57 50 -129 110 -158 135 -30 25 -66 56 -81 70 -15 14 -67 57 -114 95 -48 39 -102 84 -119 100 -17 17 -58 52 -91 80 -33 27 -66 56 -73 63 -8 7 -30 25 -50 40 -20 15 -54 44 -76 66 -23 21 -57 50 -76 64 -19 14 -46 37 -60 52 -14 14 -41 37 -60 50 -19 14 -44 34 -55 45 -11 11 -45 41 -75 65 -30 25 -72 60 -92 79 -21 19 -48 41 -60 49 -13 9 -25 19 -28 22 -12 15 -138 122 -240 203 -86 69 -295 187 -331 187 -10 0 -21 5 -24 10 -3 6 -14 10 -24 10 -10 0 -24 7 -31 15 -7 8 -23 15 -36 15 -12 0 -26 5 -29 10 -3 6 -21 10 -40 10 -19 0 -37 5 -40 10 -3 6 -28 10 -55 10 -27 0 -52 5 -55 10 -8 13 -435 13 -455 0z"/>
 </g>

</svg>