<!DOCTYPE svg PUBLIC "-//W3C//DTD SVG 20010904//EN" "http://www.w3.org/TR/2001/REC-SVG-20010904/DTD/svg10.dtd">
<svg version="1.0" xmlns="http://www.w3.org/2000/svg" width="640px" height="467px" viewBox="0 0 6400 4670" preserveAspectRatio="xMidYMid meet">
<g id="layer101" fill="#4385f4" stroke="none">
 <path d="M2999 4349 c-8 -16 -10 -229 -7 -782 3 -710 2 -760 -14 -766 -24 -8 -1299 -5 -1403 4 -149 12 -246 -26 -281 -111 -11 -26 -14 -209 -14 -939 0 -499 -3 -925 -6 -945 -13 -81 51 -180 130 -201 23 -6 119 -10 230 -8 137 1 190 -1 189 -9 -6 -28 -66 -112 -84 -117 -11 -4 -53 -4 -92 0 -97 9 -104 1 -70 -80 14 -33 30 -66 35 -73 8 -9 55 -12 192 -10 l181 3 18 37 c26 53 33 108 16 119 -8 5 -38 6 -66 3 -64 -8 -65 -3 -22 72 l30 54 187 1 c328 1 581 1 785 0 l197 -1 0 -60 0 -60 -95 0 c-110 0 -118 -6 -86 -66 12 -21 21 -46 21 -56 0 -9 7 -24 16 -32 13 -14 47 -16 218 -16 151 0 206 3 213 13 11 14 43 113 43 133 0 19 -32 25 -115 22 l-70 -3 0 63 0 64 573 -1 c315 0 577 -3 583 -7 13 -8 69 -94 69 -106 0 -4 -26 -8 -59 -8 -82 0 -89 -11 -55 -94 19 -47 32 -68 48 -71 11 -3 98 -4 191 -3 l170 3 23 70 c29 86 22 96 -68 88 -87 -8 -105 0 -145 62 -19 31 -35 60 -35 66 0 7 70 9 214 7 l214 -3 43 30 c24 17 52 46 64 65 20 35 20 45 20 1000 0 945 -1 966 -20 999 -11 19 -37 48 -58 65 l-39 31 -796 2 -797 2 -11 92 c-6 51 -7 117 -3 148 5 31 7 339 6 684 -2 546 -4 629 -17 637 -8 5 -97 10 -197 10 -175 0 -183 -1 -194 -21z m-339 -1817 c857 1 1578 1 1925 -1 83 0 158 2 168 5 25 8 84 -56 94 -103 4 -21 6 -69 5 -108 -2 -38 -4 -371 -5 -739 l-2 -669 -28 -21 -28 -21 -1597 2 -1597 2 -22 26 -23 26 0 772 c0 693 2 775 16 795 23 34 51 42 119 37 33 -3 472 -5 975 -3z"/>
 </g>

</svg>