<!DOCTYPE svg PUBLIC "-//W3C//DTD SVG 20010904//EN" "http://www.w3.org/TR/2001/REC-SVG-20010904/DTD/svg10.dtd">
<svg version="1.0" xmlns="http://www.w3.org/2000/svg" width="225px" height="225px" viewBox="0 0 2250 2250" preserveAspectRatio="xMidYMid meet">
<g id="layer101" fill="#4285f4" stroke="none">
 <path d="M930 2242 c0 -4 -36 -15 -80 -25 -206 -46 -404 -164 -559 -333 -126 -137 -210 -292 -261 -482 -27 -103 -30 -126 -30 -271 0 -145 3 -171 30 -278 106 -415 403 -712 825 -826 63 -16 116 -22 249 -24 157 -4 176 -2 274 23 168 43 278 92 402 179 136 96 275 256 349 402 42 84 88 220 96 286 4 31 11 57 16 57 5 0 9 86 9 191 0 105 -4 188 -9 185 -4 -3 -11 15 -15 40 -14 107 -81 261 -171 398 -147 222 -426 410 -680 458 -36 7 -65 16 -65 20 0 5 -85 8 -190 8 -104 0 -190 -3 -190 -8z m280 -212 c377 -47 669 -281 780 -627 139 -433 -59 -892 -475 -1100 -123 -62 -236 -85 -403 -85 -383 2 -722 248 -850 617 -76 218 -61 462 42 680 120 253 358 439 637 499 41 9 92 17 114 19 22 2 47 4 55 5 9 1 54 -3 100 -8z"/>
 <path d="M1059 1752 c-46 -20 -70 -51 -79 -105 -13 -69 -4 -94 53 -141 77 -63 133 -58 207 19 32 33 35 41 34 91 -2 65 -18 87 -89 120 -49 23 -95 29 -126 16z"/>
 <path d="M1184 1342 c3 -5 -18 -7 -47 -5 -60 5 -109 -16 -141 -60 -20 -27 -21 -40 -21 -360 0 -317 1 -334 20 -367 48 -81 225 -76 265 8 9 19 13 99 15 287 3 335 -3 416 -32 447 -12 13 -22 27 -22 33 0 5 -9 13 -21 17 -11 4 -19 4 -16 0z"/>
 </g>

</svg>