<!DOCTYPE svg PUBLIC "-//W3C//DTD SVG 20010904//EN" "http://www.w3.org/TR/2001/REC-SVG-20010904/DTD/svg10.dtd">
<svg version="1.0" xmlns="http://www.w3.org/2000/svg" width="1200px" height="1200px" viewBox="0 0 12000 12000" preserveAspectRatio="xMidYMid meet">
<g id="layer101" fill="#4285f4" stroke="none">
 <path d="M4807 11143 c-6 -49 -14 -194 -42 -728 -9 -165 -22 -424 -30 -575 -8 -151 -21 -404 -30 -563 -8 -158 -22 -414 -30 -570 -8 -155 -20 -374 -25 -487 -13 -240 -17 -270 -39 -277 -9 -3 -25 -9 -36 -13 -11 -5 -45 -19 -75 -30 -30 -12 -64 -26 -75 -30 -11 -5 -45 -19 -75 -30 -30 -12 -64 -26 -75 -30 -11 -5 -45 -19 -75 -30 -30 -12 -64 -26 -75 -30 -11 -5 -45 -19 -75 -30 -30 -12 -64 -26 -75 -30 -11 -5 -45 -19 -75 -30 -30 -12 -62 -25 -70 -29 -13 -7 -15 -152 -15 -1207 0 -1121 1 -1205 18 -1299 67 -364 197 -663 411 -950 74 -99 323 -348 407 -407 138 -97 168 -116 254 -165 211 -121 431 -197 720 -249 78 -14 151 -18 330 -18 284 0 395 17 650 96 92 29 117 38 200 74 55 23 170 79 175 85 3 3 17 12 31 20 73 39 113 62 123 70 6 5 60 45 119 90 133 99 313 280 412 414 41 55 79 105 84 111 5 6 19 29 30 50 12 21 25 46 30 54 94 155 190 394 234 585 54 237 52 175 52 1454 l0 1184 -55 22 c-30 13 -80 33 -110 44 -30 12 -64 26 -75 31 -11 4 -45 18 -75 30 -30 11 -64 25 -75 30 -11 4 -45 18 -75 30 -30 11 -64 25 -75 30 -11 4 -45 18 -75 30 -30 11 -64 25 -75 30 -11 4 -45 18 -76 30 l-57 23 -6 61 c-3 33 -8 122 -11 196 -3 74 -12 254 -20 400 -8 146 -21 398 -30 560 -54 1039 -73 1387 -92 1718 l-17 302 -1142 0 -1141 0 -6 -47z"/>
 <path d="M5755 2844 c-105 -17 -240 -61 -345 -114 -47 -23 -87 -46 -90 -49 -3 -4 -22 -17 -42 -30 -68 -41 -186 -150 -260 -241 -163 -199 -257 -470 -258 -741 0 -237 69 -466 201 -669 55 -83 235 -264 319 -319 242 -160 513 -229 787 -201 65 6 141 18 168 26 94 27 150 46 182 60 83 37 109 50 121 62 7 6 17 12 22 12 42 0 293 227 359 325 41 61 121 194 121 202 0 4 13 40 29 82 70 183 91 356 67 551 -16 129 -29 192 -52 247 -8 17 -14 36 -14 42 0 6 -4 19 -10 29 -5 9 -21 42 -35 72 -60 125 -118 205 -229 316 -154 154 -327 258 -516 309 -160 44 -365 55 -525 29z"/>
 </g>

</svg>