<!DOCTYPE svg PUBLIC "-//W3C//DTD SVG 20010904//EN" "http://www.w3.org/TR/2001/REC-SVG-20010904/DTD/svg10.dtd">
<svg version="1.0" xmlns="http://www.w3.org/2000/svg" width="72px" height="72px" viewBox="0 0 720 720" preserveAspectRatio="xMidYMid meet">
<g id="layer101" fill="#4285f4" stroke="none">
 <path d="M305 635 c-34 -33 -34 -87 0 -120 51 -52 139 -14 139 60 0 74 -88 112 -139 60z m86 -41 c9 -11 10 -20 2 -32 -15 -24 -44 -27 -59 -7 -28 38 27 75 57 39z"/>
 <path d="M124 629 c-8 -13 -9 -11 280 -312 126 -131 234 -236 240 -234 34 11 3 51 -234 297 -139 143 -258 260 -265 260 -8 0 -17 -5 -21 -11z"/>
 <path d="M200 462 c0 -20 31 -52 67 -71 46 -24 45 -9 -2 39 -53 54 -65 60 -65 32z"/>
 <path d="M455 449 c-52 -39 -50 -36 -35 -53 10 -13 16 -14 39 -2 36 19 74 62 66 75 -10 17 -27 12 -70 -20z"/>
 <path d="M100 384 c0 -22 64 -79 116 -104 49 -24 136 -40 182 -33 62 10 32 38 -50 46 -68 7 -132 33 -180 76 -39 34 -68 40 -68 15z"/>
 <path d="M540 360 c-42 -37 -44 -41 -28 -56 16 -16 20 -15 62 20 47 38 61 76 29 76 -10 -1 -38 -19 -63 -40z"/>
 <path d="M10 315 c-9 -11 -5 -21 27 -54 111 -117 310 -169 453 -120 33 12 37 21 16 38 -11 9 -25 10 -53 2 -126 -35 -289 15 -387 118 -34 35 -39 37 -56 16z"/>
 <path d="M634 281 c-43 -42 -49 -51 -38 -66 12 -16 15 -16 43 4 16 12 41 35 56 52 20 24 23 34 14 45 -16 20 -19 19 -75 -35z"/>
 </g>

</svg>