<?xml version="1.0" encoding="UTF-8" standalone="no"?><!-- Generator: Gravit.io --><svg xmlns="http://www.w3.org/2000/svg" xmlns:xlink="http://www.w3.org/1999/xlink" style="isolation:isolate" viewBox="-42 -42 624 624" width="624pt" height="624pt"><defs><filter id="hMuWnJQhaoFMAg3gpbJ4UlFfVQPAxTTT" x="-200%" y="-200%" width="400%" height="400%" filterUnits="objectBoundingBox" color-interpolation-filters="sRGB"><feGaussianBlur xmlns="http://www.w3.org/2000/svg" in="SourceGraphic" stdDeviation="13.73954900108489"/><feOffset xmlns="http://www.w3.org/2000/svg" dx="0" dy="0" result="pf_100_offsetBlur"/><feFlood xmlns="http://www.w3.org/2000/svg" flood-color="#4285F4" flood-opacity="0.63"/><feComposite xmlns="http://www.w3.org/2000/svg" in2="pf_100_offsetBlur" operator="in" result="pf_100_dropShadow"/><feBlend xmlns="http://www.w3.org/2000/svg" in="SourceGraphic" in2="pf_100_dropShadow" mode="normal"/></filter></defs><g filter="url(#hMuWnJQhaoFMAg3gpbJ4UlFfVQPAxTTT)"><mask id="_mask_XEAtOGvZQJklxgYPHFzblmqTLHyO3hEu"><circle vector-effect="non-scaling-stroke" cx="269.9999999999991" cy="25" r="25" fill="white" stroke="none"/></mask><circle vector-effect="non-scaling-stroke" cx="269.9999999999991" cy="25" r="25" fill="rgb(66,133,244)"/><circle vector-effect="non-scaling-stroke" cx="269.9999999999991" cy="25" r="25" fill="rgb(66,133,244)" mask="url(#_mask_XEAtOGvZQJklxgYPHFzblmqTLHyO3hEu)" stroke-width="20" stroke="rgb(66,133,244)" stroke-linejoin="miter" stroke-linecap="square" stroke-miterlimit="3"/></g><defs><filter id="bO0VwGF6agcVb4oAMPSffpe7Gp5L28QH" x="-200%" y="-200%" width="400%" height="400%" filterUnits="objectBoundingBox" color-interpolation-filters="sRGB"><feGaussianBlur xmlns="http://www.w3.org/2000/svg" in="SourceGraphic" stdDeviation="13.73954900108489"/><feOffset xmlns="http://www.w3.org/2000/svg" dx="0" dy="0" result="pf_100_offsetBlur"/><feFlood xmlns="http://www.w3.org/2000/svg" flood-color="#979797" flood-opacity="0.63"/><feComposite xmlns="http://www.w3.org/2000/svg" in2="pf_100_offsetBlur" operator="in" result="pf_100_dropShadow"/><feBlend xmlns="http://www.w3.org/2000/svg" in="SourceGraphic" in2="pf_100_dropShadow" mode="normal"/></filter></defs><g filter="url(#bO0VwGF6agcVb4oAMPSffpe7Gp5L28QH)"><mask id="_mask_QbiulfcP440Q7qqrWUrSyIeJsQRVwc7D"><path d=" M 25 295 C 11.202 295 0 283.798 0 270 C 0 256.202 11.202 245 25 245 C 38.798 245 50 256.202 50 270 C 50 283.798 38.798 295 25 295 Z " fill="white" stroke="none"/></mask><path d=" M 25 295 C 11.202 295 0 283.798 0 270 C 0 256.202 11.202 245 25 245 C 38.798 245 50 256.202 50 270 C 50 283.798 38.798 295 25 295 Z " fill="rgb(151,151,151)"/><path d=" M 25 295 C 11.202 295 0 283.798 0 270 C 0 256.202 11.202 245 25 245 C 38.798 245 50 256.202 50 270 C 50 283.798 38.798 295 25 295 Z " fill="rgb(151,151,151)" mask="url(#_mask_QbiulfcP440Q7qqrWUrSyIeJsQRVwc7D)" vector-effect="non-scaling-stroke" stroke-width="20" stroke="rgb(151,151,151)" stroke-linejoin="miter" stroke-linecap="square" stroke-miterlimit="3"/></g><defs><filter id="m1GKYSRdr2MN2tMTz9YHYC1W4F4uR6eH" x="-200%" y="-200%" width="400%" height="400%" filterUnits="objectBoundingBox" color-interpolation-filters="sRGB"><feGaussianBlur xmlns="http://www.w3.org/2000/svg" in="SourceGraphic" stdDeviation="13.73954900108489"/><feOffset xmlns="http://www.w3.org/2000/svg" dx="0" dy="0" result="pf_100_offsetBlur"/><feFlood xmlns="http://www.w3.org/2000/svg" flood-color="#979797" flood-opacity="0.63"/><feComposite xmlns="http://www.w3.org/2000/svg" in2="pf_100_offsetBlur" operator="in" result="pf_100_dropShadow"/><feBlend xmlns="http://www.w3.org/2000/svg" in="SourceGraphic" in2="pf_100_dropShadow" mode="normal"/></filter></defs><g filter="url(#m1GKYSRdr2MN2tMTz9YHYC1W4F4uR6eH)"><mask id="_mask_LvSgqYiYb3G1iJ7nec0DsFQg23AHAX7s"><path d=" M 295.778 515.436 C 295.537 529.232 284.141 540.237 270.345 539.996 C 256.549 539.755 245.545 528.36 245.785 514.564 C 246.026 500.768 257.422 489.763 271.218 490.004 C 285.014 490.245 296.019 501.641 295.778 515.436 Z " fill="white" stroke="none"/></mask><path d=" M 295.778 515.436 C 295.537 529.232 284.141 540.237 270.345 539.996 C 256.549 539.755 245.545 528.36 245.785 514.564 C 246.026 500.768 257.422 489.763 271.218 490.004 C 285.014 490.245 296.019 501.641 295.778 515.436 Z " fill="rgb(151,151,151)"/><path d=" M 295.778 515.436 C 295.537 529.232 284.141 540.237 270.345 539.996 C 256.549 539.755 245.545 528.36 245.785 514.564 C 246.026 500.768 257.422 489.763 271.218 490.004 C 285.014 490.245 296.019 501.641 295.778 515.436 Z " fill="rgb(151,151,151)" mask="url(#_mask_LvSgqYiYb3G1iJ7nec0DsFQg23AHAX7s)" vector-effect="non-scaling-stroke" stroke-width="20" stroke="rgb(151,151,151)" stroke-linejoin="miter" stroke-linecap="square" stroke-miterlimit="3"/></g><defs><filter id="PZDZTqkzeatc803HfBVe4NYKB1hGjgZ6" x="-200%" y="-200%" width="400%" height="400%" filterUnits="objectBoundingBox" color-interpolation-filters="sRGB"><feGaussianBlur xmlns="http://www.w3.org/2000/svg" in="SourceGraphic" stdDeviation="13.73954900108489"/><feOffset xmlns="http://www.w3.org/2000/svg" dx="0" dy="0" result="pf_100_offsetBlur"/><feFlood xmlns="http://www.w3.org/2000/svg" flood-color="#979797" flood-opacity="0.63"/><feComposite xmlns="http://www.w3.org/2000/svg" in2="pf_100_offsetBlur" operator="in" result="pf_100_dropShadow"/><feBlend xmlns="http://www.w3.org/2000/svg" in="SourceGraphic" in2="pf_100_dropShadow" mode="normal"/></filter></defs><g filter="url(#PZDZTqkzeatc803HfBVe4NYKB1hGjgZ6)"><mask id="_mask_lkYZlwmEQHeNWG5A1q5cWAFzHdwWUPtO"><path d=" M 515.436 245.004 C 529.232 245.245 540.237 256.641 539.996 270.436 C 539.755 284.232 528.36 295.237 514.564 294.996 C 500.768 294.755 489.763 283.36 490.004 269.564 C 490.245 255.768 501.641 244.763 515.436 245.004 Z " fill="white" stroke="none"/></mask><path d=" M 515.436 245.004 C 529.232 245.245 540.237 256.641 539.996 270.436 C 539.755 284.232 528.36 295.237 514.564 294.996 C 500.768 294.755 489.763 283.36 490.004 269.564 C 490.245 255.768 501.641 244.763 515.436 245.004 Z " fill="rgb(151,151,151)"/><path d=" M 515.436 245.004 C 529.232 245.245 540.237 256.641 539.996 270.436 C 539.755 284.232 528.36 295.237 514.564 294.996 C 500.768 294.755 489.763 283.36 490.004 269.564 C 490.245 255.768 501.641 244.763 515.436 245.004 Z " fill="rgb(151,151,151)" mask="url(#_mask_lkYZlwmEQHeNWG5A1q5cWAFzHdwWUPtO)" vector-effect="non-scaling-stroke" stroke-width="20" stroke="rgb(151,151,151)" stroke-linejoin="miter" stroke-linecap="square" stroke-miterlimit="3"/></g><defs><filter id="aNFtvkNyLi2oXJmzRMABNQdFuipBlEMU" x="-200%" y="-200%" width="400%" height="400%" filterUnits="objectBoundingBox" color-interpolation-filters="sRGB"><feGaussianBlur xmlns="http://www.w3.org/2000/svg" in="SourceGraphic" stdDeviation="13.73954900108489"/><feOffset xmlns="http://www.w3.org/2000/svg" dx="0" dy="0" result="pf_100_offsetBlur"/><feFlood xmlns="http://www.w3.org/2000/svg" flood-color="#979797" flood-opacity="0.63"/><feComposite xmlns="http://www.w3.org/2000/svg" in2="pf_100_offsetBlur" operator="in" result="pf_100_dropShadow"/><feBlend xmlns="http://www.w3.org/2000/svg" in="SourceGraphic" in2="pf_100_dropShadow" mode="normal"/></filter></defs><g filter="url(#aNFtvkNyLi2oXJmzRMABNQdFuipBlEMU)"><mask id="_mask_5RIsHZ4Gv1661SvKfx9K4fwpysUfwLus"><path d=" M 82.086 117.202 C 72.248 107.528 72.115 91.687 81.789 81.848 C 91.463 72.01 107.305 71.877 117.143 81.551 C 126.981 91.226 127.114 107.067 117.44 116.905 C 107.766 126.744 91.924 126.877 82.086 117.202 Z " fill="white" stroke="none"/></mask><path d=" M 82.086 117.202 C 72.248 107.528 72.115 91.687 81.789 81.848 C 91.463 72.01 107.305 71.877 117.143 81.551 C 126.981 91.226 127.114 107.067 117.44 116.905 C 107.766 126.744 91.924 126.877 82.086 117.202 Z " fill="rgb(151,151,151)"/><path d=" M 82.086 117.202 C 72.248 107.528 72.115 91.687 81.789 81.848 C 91.463 72.01 107.305 71.877 117.143 81.551 C 126.981 91.226 127.114 107.067 117.44 116.905 C 107.766 126.744 91.924 126.877 82.086 117.202 Z " fill="rgb(151,151,151)" mask="url(#_mask_5RIsHZ4Gv1661SvKfx9K4fwpysUfwLus)" vector-effect="non-scaling-stroke" stroke-width="20" stroke="rgb(151,151,151)" stroke-linejoin="miter" stroke-linecap="square" stroke-miterlimit="3"/></g><defs><filter id="IkPO4oTTy8NIJpNMKV8SQxn6h5WCqyAQ" x="-200%" y="-200%" width="400%" height="400%" filterUnits="objectBoundingBox" color-interpolation-filters="sRGB"><feGaussianBlur xmlns="http://www.w3.org/2000/svg" in="SourceGraphic" stdDeviation="13.73954900108489"/><feOffset xmlns="http://www.w3.org/2000/svg" dx="0" dy="0" result="pf_100_offsetBlur"/><feFlood xmlns="http://www.w3.org/2000/svg" flood-color="#979797" flood-opacity="0.63"/><feComposite xmlns="http://www.w3.org/2000/svg" in2="pf_100_offsetBlur" operator="in" result="pf_100_dropShadow"/><feBlend xmlns="http://www.w3.org/2000/svg" in="SourceGraphic" in2="pf_100_dropShadow" mode="normal"/></filter></defs><g filter="url(#IkPO4oTTy8NIJpNMKV8SQxn6h5WCqyAQ)"><mask id="_mask_iqvekbfQHvqsctxBJ7qbiUcUFNS35Stz"><path d=" M 457.274 422.798 C 467.113 432.472 467.246 448.313 457.571 458.152 C 447.897 467.99 432.056 468.123 422.217 458.449 C 412.379 448.774 412.246 432.933 421.92 423.095 C 431.594 413.256 447.436 413.123 457.274 422.798 Z " fill="white" stroke="none"/></mask><path d=" M 457.274 422.798 C 467.113 432.472 467.246 448.313 457.571 458.152 C 447.897 467.99 432.056 468.123 422.217 458.449 C 412.379 448.774 412.246 432.933 421.92 423.095 C 431.594 413.256 447.436 413.123 457.274 422.798 Z " fill="rgb(151,151,151)"/><path d=" M 457.274 422.798 C 467.113 432.472 467.246 448.313 457.571 458.152 C 447.897 467.99 432.056 468.123 422.217 458.449 C 412.379 448.774 412.246 432.933 421.92 423.095 C 431.594 413.256 447.436 413.123 457.274 422.798 Z " fill="rgb(151,151,151)" mask="url(#_mask_iqvekbfQHvqsctxBJ7qbiUcUFNS35Stz)" vector-effect="non-scaling-stroke" stroke-width="20" stroke="rgb(151,151,151)" stroke-linejoin="miter" stroke-linecap="square" stroke-miterlimit="3"/></g><defs><filter id="AJpDx6VOST0LVxec1X8S38uPJvLglTLM" x="-200%" y="-200%" width="400%" height="400%" filterUnits="objectBoundingBox" color-interpolation-filters="sRGB"><feGaussianBlur xmlns="http://www.w3.org/2000/svg" in="SourceGraphic" stdDeviation="13.73954900108489"/><feOffset xmlns="http://www.w3.org/2000/svg" dx="0" dy="0" result="pf_100_offsetBlur"/><feFlood xmlns="http://www.w3.org/2000/svg" flood-color="#979797" flood-opacity="0.63"/><feComposite xmlns="http://www.w3.org/2000/svg" in2="pf_100_offsetBlur" operator="in" result="pf_100_dropShadow"/><feBlend xmlns="http://www.w3.org/2000/svg" in="SourceGraphic" in2="pf_100_dropShadow" mode="normal"/></filter></defs><g filter="url(#AJpDx6VOST0LVxec1X8S38uPJvLglTLM)"><mask id="_mask_BEK5tC5p6ormx6kOrsluNqcp8xv6Un8G"><path d=" M 115.073 458.408 C 105.399 468.247 89.558 468.38 79.719 458.706 C 69.881 449.031 69.748 433.19 79.422 423.351 C 89.097 413.513 104.938 413.38 114.776 423.054 C 124.615 432.729 124.748 448.57 115.073 458.408 Z " fill="white" stroke="none"/></mask><path d=" M 115.073 458.408 C 105.399 468.247 89.558 468.38 79.719 458.706 C 69.881 449.031 69.748 433.19 79.422 423.351 C 89.097 413.513 104.938 413.38 114.776 423.054 C 124.615 432.729 124.748 448.57 115.073 458.408 Z " fill="rgb(151,151,151)"/><path d=" M 115.073 458.408 C 105.399 468.247 89.558 468.38 79.719 458.706 C 69.881 449.031 69.748 433.19 79.422 423.351 C 89.097 413.513 104.938 413.38 114.776 423.054 C 124.615 432.729 124.748 448.57 115.073 458.408 Z " fill="rgb(151,151,151)" mask="url(#_mask_BEK5tC5p6ormx6kOrsluNqcp8xv6Un8G)" vector-effect="non-scaling-stroke" stroke-width="20" stroke="rgb(151,151,151)" stroke-linejoin="miter" stroke-linecap="square" stroke-miterlimit="3"/></g><defs><filter id="oP0mj6MRC9DlmT9sHEf83KaYHPCaKl8i" x="-200%" y="-200%" width="400%" height="400%" filterUnits="objectBoundingBox" color-interpolation-filters="sRGB"><feGaussianBlur xmlns="http://www.w3.org/2000/svg" in="SourceGraphic" stdDeviation="13.73954900108489"/><feOffset xmlns="http://www.w3.org/2000/svg" dx="0" dy="0" result="pf_100_offsetBlur"/><feFlood xmlns="http://www.w3.org/2000/svg" flood-color="#979797" flood-opacity="0.63"/><feComposite xmlns="http://www.w3.org/2000/svg" in2="pf_100_offsetBlur" operator="in" result="pf_100_dropShadow"/><feBlend xmlns="http://www.w3.org/2000/svg" in="SourceGraphic" in2="pf_100_dropShadow" mode="normal"/></filter></defs><g filter="url(#oP0mj6MRC9DlmT9sHEf83KaYHPCaKl8i)"><mask id="_mask_G3qiPkhaSNVLcgyV7EIOkIT7tWEmR7QM"><path d=" M 421.92 82.068 C 431.594 72.23 447.436 72.097 457.274 81.771 C 467.113 91.445 467.246 107.287 457.571 117.125 C 447.897 126.963 432.056 127.096 422.217 117.422 C 412.379 107.748 412.246 91.906 421.92 82.068 Z " fill="white" stroke="none"/></mask><path d=" M 421.92 82.068 C 431.594 72.23 447.436 72.097 457.274 81.771 C 467.113 91.445 467.246 107.287 457.571 117.125 C 447.897 126.963 432.056 127.096 422.217 117.422 C 412.379 107.748 412.246 91.906 421.92 82.068 Z " fill="rgb(151,151,151)"/><path d=" M 421.92 82.068 C 431.594 72.23 447.436 72.097 457.274 81.771 C 467.113 91.445 467.246 107.287 457.571 117.125 C 447.897 126.963 432.056 127.096 422.217 117.422 C 412.379 107.748 412.246 91.906 421.92 82.068 Z " fill="rgb(151,151,151)" mask="url(#_mask_G3qiPkhaSNVLcgyV7EIOkIT7tWEmR7QM)" vector-effect="non-scaling-stroke" stroke-width="20" stroke="rgb(151,151,151)" stroke-linejoin="miter" stroke-linecap="square" stroke-miterlimit="3"/></g></svg>